<svg preserveAspectRatio="xMidYMid meet" data-bbox="20.179 21.704 347.9 347.726" height="529" viewBox="20.179 21.704 347.9 347.726" width="529" xmlns="http://www.w3.org/2000/svg" data-type="color" role="img" aria-labelledby="svgcid--9mnth0ea0lbq"><title id="svgcid--9mnth0ea0lbq">Personlied time table</title>
    <g>
        <path d="M26.41 306.086c10.152 24.828 33.926 36.555 49.117 44.05 59.887 29.544 150.91 25.997 216.477-28.038 15.344-12.649 90.973-78.891 73.46-168.493-15.484-79.207-93.683-125.101-159.57-131.152-54.582-5.015-125.886 15.043-151.124 63.39-15.872 30.407 3.156 40.04-9.86 108.91-11.27 59.614-30.922 80.966-18.5 111.333" fill="#caddff" data-color="1"></path>
        <path d="M315.188 159.496a2.977 2.977 0 0 1-2.973 2.977 2.975 2.975 0 0 1 0-5.95 2.972 2.972 0 0 1 2.973 2.973" fill="#ffffff" data-color="2"></path>
        <path d="m60.305 43.543 281.629-7.75c6.894-.188 12.507 5.203 12.507 12.047v267.262c0 6.843-5.613 12.05-12.507 11.636l-281.63-16.925c-5.753-.348-10.402-5.668-10.402-11.883V55.086c0-6.215 4.649-11.383 10.403-11.543" fill="#5479f7" data-color="3"></path>
        <path d="m60.305 43.547.02.625c-5.4.148-9.794 5.047-9.794 10.918v242.84c0 5.882 4.403 10.93 9.813 11.254l281.62 16.93c3.2.195 6.188-.868 8.43-2.981 2.204-2.074 3.415-4.926 3.415-8.031V47.84c0-3.11-1.215-6.008-3.426-8.16-2.25-2.188-5.242-3.336-8.438-3.258l-281.62 7.75ZM342.707 327.39c-.273 0-.543-.008-.816-.024L60.27 310.437c-6.063-.363-10.997-5.976-10.997-12.507V55.09c0-6.547 4.942-12.004 11.016-12.176l281.625-7.75c3.527-.102 6.856 1.188 9.344 3.613 2.457 2.395 3.808 5.61 3.808 9.063v267.262c0 3.453-1.351 6.632-3.808 8.945-2.309 2.172-5.32 3.344-8.551 3.344" fill="#000000" data-color="4"></path>
        <path d="m54.25 43.547 281.621-7.75c6.899-.192 12.512 5.2 12.512 12.047v267.258c0 6.843-5.613 12.05-12.512 11.636L54.25 309.813c-5.754-.348-10.402-5.665-10.402-11.883V55.09c0-6.219 4.648-11.387 10.402-11.543" fill="#ffffff" data-color="2"></path>
        <path d="m54.25 43.543.016.629c-5.399.148-9.79 5.047-9.79 10.914V297.93c0 5.879 4.399 10.93 9.813 11.254l281.625 16.93c3.195.195 6.184-.868 8.43-2.981 2.203-2.074 3.414-4.926 3.414-8.031V47.84c0-3.11-1.219-6.012-3.43-8.16-2.25-2.188-5.242-3.34-8.437-3.258l-281.625 7.75Zm282.398 283.848c-.27 0-.539-.008-.808-.024l-281.63-16.93c-6.062-.363-10.991-5.976-10.991-12.507V55.086c0-6.543 4.941-12.004 11.015-12.172l281.625-7.75c3.532-.105 6.856 1.184 9.344 3.613 2.457 2.391 3.813 5.61 3.813 9.063v267.262c0 3.453-1.356 6.628-3.813 8.945-2.308 2.172-5.316 3.344-8.555 3.344" fill="#000000" data-color="4"></path>
        <path d="M57.773 89.602a.63.63 0 0 1-.628-.622.634.634 0 0 1 .62-.64l273.907-3.438h.008a.63.63 0 0 1 .007 1.258L57.781 89.602h-.008" fill="#99b9ff" data-color="5"></path>
        <path d="M190.238 297.246a.627.627 0 0 1-.625-.625V54.137a.628.628 0 1 1 1.254 0V296.62a.625.625 0 0 1-.629.625" fill="#99b9ff" data-color="5"></path>
        <path d="M122.594 293.637a.63.63 0 0 1-.625-.63V55.692a.63.63 0 0 1 .625-.629c.347 0 .629.286.629.63v237.316a.631.631 0 0 1-.63.629" fill="#99b9ff" data-color="5"></path>
        <path d="M260.895 301.02a.631.631 0 0 1-.63-.63V52.513a.628.628 0 0 1 1.258 0V300.39a.628.628 0 0 1-.628.629" fill="#99b9ff" data-color="5"></path>
        <path d="m199.086 79.05 52.652-.796V58.87l-52.652 1.11v19.07" fill="#5479f7" data-color="3"></path>
        <path d="m130.664 80.086 50.395-.762V60.36l-50.395 1.067v18.66" fill="#5479f7" data-color="3"></path>
        <path d="m270.582 77.969 55.066-.832V57.309l-55.066 1.164v19.496" fill="#5479f7" data-color="3"></path>
        <path d="m65.121 81.074 48.281-.726V61.789l-48.28 1.02v18.265" fill="#5479f7" data-color="3"></path>
        <path d="m199.086 216.137 52.652 1.472V103.49l-52.652.382v112.266" fill="#99b9ff" data-color="5"></path>
        <path d="m278.047 153.586 53.633.434v-46.504l-53.633.316v45.754" fill="#99b9ff" data-color="5"></path>
        <path d="m130.473 187.855 48.91 1.368v-44.395l-48.91-.68v43.707" fill="#99b9ff" data-color="5"></path>
        <path d="m131.313 135.66 48.91 1.164V99.031l-48.91-.578v37.207" fill="#caddff" data-color="1"></path>
        <path d="m200.863 268.34 48.907 1.363V225.31l-48.907-.68v43.71" fill="#caddff" data-color="1"></path>
        <path d="m277.324 212.367 52.89 1.48V165.84l-52.89-.735v47.262" fill="#caddff" data-color="1"></path>
        <path d="m65.113 141.742 48.91 1.371V98.715l-48.91-.68v43.707" fill="#caddff" data-color="1"></path>
        <path d="m63.023 276.785 48.282 2.367V209.93l-48.282-1.293v68.148" fill="#99b9ff" data-color="5"></path>
        <path d="m132.574 279.3 48.281 2.368v-69.223l-48.28-1.293v68.149" fill="#caddff" data-color="1"></path>
        <path d="m279.637 291.875 48.281 2.367V225.02l-48.281-1.29v68.145" fill="#caddff" data-color="1"></path>
        <path d="m257.188 310.852-66.836-3.418c-1.918-.098-3.477-1.707-3.477-3.598v-63.188c0-1.89 1.559-3.343 3.477-3.246l66.835 3.418c1.922.098 3.481 1.707 3.481 3.598v63.191c0 1.887-1.559 3.34-3.48 3.243" fill="#ffffff" data-color="2"></path>
        <path d="m260.668 253.129-73.793-3.774v-8.707c0-1.89 1.559-3.343 3.477-3.246l66.835 3.418c1.922.098 3.481 1.707 3.481 3.598v8.71" fill="#99b9ff" data-color="5"></path>
        <path d="M190.168 238.027c-.707 0-1.367.254-1.863.73a2.58 2.58 0 0 0-.801 1.888v63.19c0 1.56 1.293 2.892 2.883 2.974l66.832 3.414a2.714 2.714 0 0 0 2.02-.723c.515-.492.8-1.164.8-1.89v-63.192c0-1.555-1.293-2.887-2.883-2.969l-66.836-3.418c-.05-.004-.101-.004-.152-.004Zm67.207 73.457c-.074 0-.145 0-.219-.004l-66.836-3.418c-2.246-.113-4.074-2.011-4.074-4.226v-63.191c0-1.075.422-2.07 1.191-2.801.786-.746 1.833-1.125 2.95-1.067l66.832 3.414c2.25.118 4.078 2.012 4.078 4.227v63.191c0 1.075-.426 2.07-1.192 2.801a3.946 3.946 0 0 1-2.73 1.074" fill="#000000" data-color="4"></path>
        <path d="m204.504 284.91-8.168-.418c-1.05-.055-1.906-.937-1.906-1.969v-8.101c0-1.035.855-1.828 1.906-1.777l8.168.418c1.05.054 1.902.937 1.902 1.972v8.098c0 1.035-.851 1.832-1.902 1.777" fill="#caddff" data-color="1"></path>
        <path d="m220.07 285.707-8.164-.422c-1.054-.05-1.906-.933-1.906-1.969v-8.101c0-1.031.852-1.828 1.906-1.774l8.164.418c1.051.051 1.907.934 1.907 1.97v8.1c0 1.036-.856 1.829-1.907 1.778" fill="#caddff" data-color="1"></path>
        <path d="m235.637 286.5-8.164-.418c-1.051-.05-1.907-.934-1.907-1.969v-8.101c0-1.035.856-1.828 1.907-1.774l8.164.418c1.05.051 1.906.934 1.906 1.969v8.102c0 1.035-.856 1.828-1.906 1.773" fill="#caddff" data-color="1"></path>
        <path d="m251.207 287.297-8.168-.418c-1.05-.05-1.902-.938-1.902-1.969v-8.101c0-1.036.851-1.829 1.902-1.778l8.168.418c1.05.055 1.902.938 1.902 1.973v8.098c0 1.035-.851 1.832-1.902 1.777" fill="#99b9ff" data-color="5"></path>
        <path d="m204.504 300.254-8.168-.418c-1.05-.05-1.906-.934-1.906-1.969v-8.101c0-1.036.855-1.829 1.906-1.774l8.168.418c1.05.05 1.902.934 1.902 1.969v8.101c0 1.036-.851 1.829-1.902 1.774" fill="#caddff" data-color="1"></path>
        <path d="m220.07 301.05-8.164-.417c-1.054-.055-1.906-.938-1.906-1.969v-8.101c0-1.036.852-1.829 1.906-1.778l8.164.418c1.051.055 1.907.938 1.907 1.973v8.097c0 1.036-.856 1.832-1.907 1.778" fill="#caddff" data-color="1"></path>
        <path d="m235.637 301.848-8.164-.418c-1.051-.055-1.907-.938-1.907-1.973v-8.098c0-1.035.856-1.832 1.907-1.777l8.164.418c1.05.055 1.906.938 1.906 1.969v8.101c0 1.035-.856 1.828-1.906 1.778" fill="#caddff" data-color="1"></path>
        <path d="m204.504 269.516-8.168-.418c-1.05-.055-1.906-.938-1.906-1.97v-8.1c0-1.036.855-1.833 1.906-1.778l8.168.418c1.05.055 1.902.937 1.902 1.969v8.101c0 1.035-.851 1.832-1.902 1.778" fill="#caddff" data-color="1"></path>
        <path d="m220.07 270.313-8.164-.418c-1.054-.055-1.906-.938-1.906-1.973v-8.098c0-1.035.852-1.832 1.906-1.777l8.164.418c1.051.05 1.907.937 1.907 1.969v8.101c0 1.035-.856 1.828-1.907 1.777" fill="#caddff" data-color="1"></path>
        <path d="m235.637 271.11-8.164-.419c-1.051-.054-1.907-.941-1.907-1.972v-8.098c0-1.039.856-1.832 1.907-1.781l8.164.418c1.05.055 1.906.937 1.906 1.972v8.098c0 1.04-.856 1.832-1.906 1.781" fill="#caddff" data-color="1"></path>
        <path d="m251.207 271.902-8.168-.418c-1.05-.05-1.902-.937-1.902-1.968v-8.102c0-1.035.851-1.828 1.902-1.777l8.168.418c1.05.054 1.902.937 1.902 1.972v8.098c0 1.035-.851 1.832-1.902 1.777" fill="#99b9ff" data-color="5"></path>
        <path d="M196.984 244.898h-.035c-3.664-.195-6.652-3.324-6.656-6.972 0-1.774.695-3.406 1.95-4.602 1.273-1.207 2.968-1.812 4.765-1.722.137.011.273.02.41.035a.623.623 0 0 1 .55.695.623.623 0 0 1-.695.555 8.781 8.781 0 0 0-.332-.028c-1.441-.074-2.812.41-3.832 1.375-1.007.957-1.558 2.266-1.558 3.692.004 2.992 2.453 5.554 5.469 5.719.343.02.609.312.59.66a.623.623 0 0 1-.626.593" fill="#000000" data-color="4"></path>
        <path d="M206.152 245.395c-.011 0-.023-.004-.035-.004-3.668-.196-6.652-3.325-6.652-6.973-.004-1.773.691-3.406 1.95-4.602 1.269-1.207 2.972-1.812 4.765-1.722.132.011.27.02.406.035a.63.63 0 0 1-.14 1.25 9.73 9.73 0 0 0-.337-.027c-1.445-.075-2.812.41-3.832 1.378-1.004.954-1.558 2.262-1.558 3.688.004 2.992 2.453 5.555 5.465 5.719a.63.63 0 0 1-.032 1.258" fill="#000000" data-color="4"></path>
        <path d="M215.32 245.887c-.011 0-.023-.004-.03-.004-3.673-.196-6.657-3.324-6.661-6.973 0-1.773.691-3.406 1.953-4.601 1.27-1.207 2.969-1.817 4.766-1.72.136.009.273.016.406.032a.628.628 0 1 1-.14 1.25 9.725 9.725 0 0 0-.337-.027c-1.445-.078-2.812.41-3.832 1.379-1.004.953-1.558 2.261-1.558 3.687.004 2.992 2.457 5.555 5.465 5.719.347.02.613.312.597.66a.633.633 0 0 1-.629.598" fill="#000000" data-color="4"></path>
        <path d="M224.488 246.379c-.011 0-.023-.004-.035-.004-3.664-.195-6.652-3.324-6.656-6.969 0-1.773.695-3.41 1.953-4.601 1.27-1.211 2.973-1.817 4.762-1.723.14.008.273.016.41.031a.627.627 0 0 1 .55.696.622.622 0 0 1-.69.554c-.114-.011-.227-.02-.337-.027-1.449-.082-2.812.41-3.832 1.379-1.004.953-1.558 2.265-1.558 3.687.004 2.993 2.453 5.555 5.468 5.72.344.019.61.312.594.663a.632.632 0 0 1-.629.594" fill="#000000" data-color="4"></path>
        <path d="M233.656 246.871c-.011 0-.023 0-.035-.004-3.664-.195-6.652-3.324-6.652-6.969-.004-1.773.691-3.41 1.949-4.601 1.27-1.211 2.969-1.817 4.766-1.723.132.008.27.016.406.031a.633.633 0 0 1 .555.696.638.638 0 0 1-.696.558 4.88 4.88 0 0 0-.336-.03c-1.445-.075-2.812.413-3.828 1.378-1.008.953-1.562 2.266-1.558 3.688 0 2.992 2.449 5.558 5.46 5.718a.63.63 0 0 1-.03 1.258" fill="#000000" data-color="4"></path>
        <path d="M242.824 247.363h-.031c-3.672-.199-6.656-3.328-6.656-6.972-.004-1.774.691-3.41 1.949-4.602 1.27-1.21 2.973-1.816 4.766-1.723.136.008.27.02.406.036a.629.629 0 1 1-.14 1.25 4.922 4.922 0 0 0-.333-.032c-1.45-.078-2.816.41-3.836 1.38-1.004.952-1.558 2.265-1.558 3.687.004 2.992 2.457 5.558 5.464 5.718.352.02.618.313.598.665a.632.632 0 0 1-.629.593" fill="#000000" data-color="4"></path>
        <path d="M251.473 247.828h-.036c-3.667-.2-6.652-3.328-6.656-6.976 0-1.774.692-3.407 1.95-4.602 1.273-1.203 2.968-1.809 4.765-1.719 2.32.125 4.438 1.41 5.66 3.438a.62.62 0 0 1-.215.86.624.624 0 0 1-.859-.212c-1.008-1.672-2.746-2.73-4.652-2.828-1.453-.078-2.813.41-3.832 1.375-1.008.953-1.559 2.262-1.559 3.688 0 2.992 2.453 5.558 5.465 5.718a.63.63 0 0 1 .594.66.624.624 0 0 1-.625.598" fill="#000000" data-color="4"></path>
        <path d="m319.648 339.418 2.079 14.578 5.308.024.25-14.34-7.637-.262" fill="#ffffff" data-color="2"></path>
        <path d="m322.273 353.367 4.145.016.23-13.094-6.27-.215Zm4.766 1.278h-.004l-5.312-.02a.626.626 0 0 1-.618-.54l-2.074-14.577a.618.618 0 0 1 .153-.508.662.662 0 0 1 .488-.21l7.637.265c.34.007.613.293.605.636l-.25 14.336a.625.625 0 0 1-.625.618" fill="#000000" data-color="4"></path>
        <path d="M321.547 367.934c2.086.222 5.187.308 9.332-.055 1.484-.129 2.531-1.504 2.289-2.973-.645-3.957-2.441-10.937-5.27-14.14l-1.398 1.996-.832-2.063c-.137-.222-3.652-.367-3.727.051l-.214 2.012-1.997-2.242.11 7.359a11.23 11.23 0 0 1-.23 2.418l-.524 2.543c-.313 1.527.074 3.148 1.144 4.289.418.445.883.758 1.317.805" fill="#ffffff" data-color="2"></path>
        <path d="m320.383 352.2.082 5.667c.012.856-.067 1.715-.242 2.555l-.524 2.543c-.281 1.375.086 2.773.988 3.734.336.36.672.582.926.61h.004c1.766.187 4.793.332 9.207-.055a1.898 1.898 0 0 0 1.34-.734 1.96 1.96 0 0 0 .387-1.512c-.559-3.43-2.133-9.82-4.617-13.195l-.922 1.312a.628.628 0 0 1-1.098-.129l-.723-1.793c-.593-.098-2.054-.129-2.664-.039l-.175 1.664a.618.618 0 0 1-.43.531.63.63 0 0 1-.664-.18Zm5.199 16.554c-1.758 0-3.117-.09-4.102-.2-.562-.058-1.156-.402-1.71-.995-1.18-1.258-1.668-3.07-1.301-4.848l.527-2.543c.152-.75.227-1.52.215-2.281l-.11-7.356a.622.622 0 0 1 .399-.594.624.624 0 0 1 .7.168l1.05 1.18.066-.601c0-.016.004-.028.004-.043.098-.547.696-.657.895-.692.031-.008 3.523-.347 3.988.43a.36.36 0 0 1 .047.086l.398.988.735-1.047a.628.628 0 0 1 .984-.054c3.656 4.136 5.25 13.406 5.422 14.449a3.219 3.219 0 0 1-.633 2.492 3.135 3.135 0 0 1-2.222 1.21c-2.079.185-3.856.25-5.352.25" fill="#000000" data-color="4"></path>
        <path d="M325.348 366.152c-2.336 0-3.778-.285-3.871-.304a.628.628 0 0 1 .246-1.23c.039.007 3.672.718 8.75-.177a.627.627 0 0 1 .73.508.63.63 0 0 1-.512.73 30.813 30.813 0 0 1-5.343.473" fill="#000000" data-color="4"></path>
        <path d="M328.46 360.566h-4.812a.634.634 0 0 1-.632-.628c0-.348.285-.63.632-.63h4.813a.628.628 0 1 1 0 1.258" fill="#000000" data-color="4"></path>
        <path d="m281.543 340.723-1.871 16.988-7.14 1.496.433-19.922 8.578 1.438" fill="#ffffff" data-color="2"></path>
        <path d="m273.578 340.027-.402 18.403 5.922-1.243 1.75-15.945Zm-1.05 19.809a.63.63 0 0 1-.625-.645l.433-19.921a.63.63 0 0 1 .734-.606l8.575 1.438a.627.627 0 0 1 .52.687l-1.868 16.988a.64.64 0 0 1-.496.551l-7.145 1.496c-.039.004-.086.012-.129.012" fill="#000000" data-color="4"></path>
        <path d="M282.691 365.813c.16-2.977.164-8.461-1.648-11.102l-5.715 2.035v-1.223c0-.39-.281-.718-.64-.738l-3.184-.183a6.934 6.934 0 0 0-3.461.714c-3.203 1.575-12.953 5.618-14.3 10.16-.403 1.34.644 2.684 2.042 2.723 3.207.09 10.922.192 24.762-.281a2.222 2.222 0 0 0 2.144-2.106" fill="#ffffff" data-color="2"></path>
        <path d="M282.691 365.813h.004Zm-11.57-10.594c-.96 0-1.922.226-2.8.66-.387.191-.872.418-1.419.676-3.718 1.742-11.449 5.37-12.558 9.101-.13.43-.047.887.222 1.258.29.395.75.645 1.239.656 3.355.098 11.027.188 24.718-.28a1.585 1.585 0 0 0 1.543-1.509c.243-4.652-.226-8.355-1.296-10.308l-5.23 1.867a.633.633 0 0 1-.84-.594v-1.223c0-.07-.04-.105-.048-.109l-3.183-.184a5.167 5.167 0 0 0-.348-.011Zm-8.937 13.687c-2.942 0-5.04-.039-6.414-.078a2.847 2.847 0 0 1-2.22-1.18 2.657 2.657 0 0 1-.41-2.351c1.266-4.27 9.048-7.918 13.227-9.879.54-.258 1.016-.48 1.399-.668a7.643 7.643 0 0 1 3.773-.777l3.188.183c.687.043 1.23.64 1.23 1.367v.332l4.875-1.738a.625.625 0 0 1 .727.238c1.914 2.786 1.925 8.395 1.761 11.493a2.835 2.835 0 0 1-2.75 2.699c-8.12.277-14.136.36-18.386.36" fill="#000000" data-color="4"></path>
        <path d="M264.39 366.082c-4.257 0-6.945-.195-6.995-.2a.628.628 0 0 1 .094-1.254c.097.009 10.144.74 22.296-.671a.63.63 0 0 1 .145 1.25c-5.993.695-11.477.875-15.54.875" fill="#000000" data-color="4"></path>
        <path d="M266.164 361.219a.627.627 0 0 1-.363-1.137l5.5-3.96a.63.63 0 0 1 .875.144.622.622 0 0 1-.145.875l-5.5 3.96a.64.64 0 0 1-.367.118" fill="#000000" data-color="4"></path>
        <path d="M279.313 230.484s-10.239 70.274-8.06 117.176l3.196.32c1.719.172 3.45.215 5.172.13l3.027-.153s12.211-71.246 18.309-83.078c0 0 16.578 63.36 17.219 80.523 0 0 7.37.743 10.304-.316 1.579-16.566 2.036-33.715 2.114-44.477.226-30.812-2.719-44.804-4.332-51.445a157.196 157.196 0 0 0-4.23-14.402l-3.876-11.063-38.844 6.785" fill="#5479f7" data-color="3"></path>
        <path d="m271.86 347.09 2.656.265a33.83 33.83 0 0 0 5.074.125l2.527-.128c1.184-6.864 12.41-71.372 18.281-82.766a.63.63 0 0 1 1.168.129c.164.629 16.258 62.305 17.211 80.11 1.645.136 6.633.468 9.121-.212 1.649-17.523 2.004-35.07 2.07-44.011.212-29.18-2.359-43.247-4.312-51.29a159.06 159.06 0 0 0-4.215-14.343l-3.699-10.559-37.87 6.617c-.864 6.082-9.974 71.711-8.013 116.063Zm6.03 1.691c-1.171 0-2.343-.058-3.503-.176l-3.192-.32a.626.626 0 0 1-.566-.594c-2.16-46.425 7.96-116.593 8.062-117.296a.63.63 0 0 1 .516-.528l38.84-6.789a.628.628 0 0 1 .703.41l3.875 11.067a159.15 159.15 0 0 1 4.254 14.46c1.965 8.106 4.558 22.274 4.344 51.598-.067 9.032-.43 26.828-2.114 44.535a.629.629 0 0 1-.41.528c-3.039 1.094-10.277.383-10.586.351a.63.63 0 0 1-.566-.601c-.567-15.32-14.098-68.383-16.75-78.664-6.184 15.355-17.41 80.617-17.527 81.3a.632.632 0 0 1-.586.524l-3.032.152c-.582.028-1.172.043-1.761.043" fill="#000000" data-color="4"></path>
        <path d="M301.531 267.563a.63.63 0 0 1-.605-.461l-1.703-6.204a3.964 3.964 0 0 0-3.028-2.843l-1.593-.328a.628.628 0 1 1 .253-1.23l1.594.327a5.224 5.224 0 0 1 3.988 3.738l1.7 6.208a.622.622 0 0 1-.606.793" fill="#000000" data-color="4"></path>
        <path d="M324.035 256.008c-.035 0-.07 0-.105-.008-9.582-1.598-11.54-9.238-11.559-9.313a.636.636 0 0 1 .465-.761.628.628 0 0 1 .758.46c.07.286 1.812 6.919 10.543 8.376a.626.626 0 0 1-.102 1.246" fill="#000000" data-color="4"></path>
        <path d="M278.852 251.39a.632.632 0 0 1-.579-.378.633.633 0 0 1 .329-.825c4.878-2.12 4.761-6.652 4.761-6.695a.632.632 0 0 1 .606-.656.636.636 0 0 1 .648.61c.004.05.14 5.437-5.515 7.894a.622.622 0 0 1-.25.05" fill="#000000" data-color="4"></path>
        <path d="M280.137 171.996c6.773-.762 21.23-2.129 31.172-1.223 3.003.274 7.336 2.11 9.617 4.082 6.726 5.805 19.41 18.59 21.527 33.93a4.337 4.337 0 0 1-3.363 4.828l-11.719 2.602s4.672 18.422 4.297 21.605c-.375 3.18-10.059 8.594-22.168 4.153-9.445-3.461-22.805-6.215-31.293-3.227-.078.027-.89 6.55-.977 6.563-2.722.394-5.464-.664-5.402-4.496l1.29-19.895-15.532-2.055-1.387-.46c-4.195-1.4-6.367-6.032-4.746-10.153 3.645-9.293 9.152-24.332 19.352-32.645 2.18-1.773 6.539-3.292 9.332-3.609" fill="#000000" data-color="4"></path>
        <path d="M287.2 233.223h-24.274a2.294 2.294 0 0 1-2.227-1.739l-8.398-33.879a2.296 2.296 0 0 1 2.23-2.847h24.27c1.054 0 1.972.719 2.226 1.742l8.399 33.875a2.293 2.293 0 0 1-2.227 2.848" fill="#5479f7" data-color="3"></path>
        <path d="M254.527 195.387c-.515 0-.992.234-1.308.64a1.66 1.66 0 0 0-.309 1.426l8.399 33.879a1.663 1.663 0 0 0 1.617 1.266h24.273a1.662 1.662 0 0 0 1.613-2.067l-8.394-33.879a1.666 1.666 0 0 0-1.617-1.265Zm32.672 38.468h-24.273a2.92 2.92 0 0 1-2.836-2.222l-8.399-33.875a2.919 2.919 0 0 1 2.836-3.63h24.274c1.344 0 2.508.915 2.836 2.224l8.398 33.875a2.92 2.92 0 0 1-2.836 3.628" fill="#000000" data-color="4"></path>
        <path d="m256.25 212.074.816 3.418 2.934-.98a22.675 22.675 0 0 0 4.625-2.137l1.684-1.023a2.312 2.312 0 0 1 3.378 1.222c1.036 2.95.833 7.883-9.738 10.985-5.832 1.714-7.504-5.766-6.75-9.918.196-1.063.719-1.739 1.25-2.168a1.13 1.13 0 0 1 1.801.601" fill="#ffffff" data-color="2"></path>
        <path d="M255.152 211.852a.485.485 0 0 0-.308.109c-.543.434-.887 1.039-1.024 1.793-.507 2.793.137 6.738 2.098 8.504 1.016.918 2.312 1.152 3.855.695 4.832-1.414 7.895-3.336 9.114-5.715.699-1.363.77-2.863.203-4.457a1.678 1.678 0 0 0-1.027-1.035 1.663 1.663 0 0 0-1.43.145l-1.684 1.02a23.224 23.224 0 0 1-4.754 2.198l-2.933.977a.613.613 0 0 1-.805-.45l-.816-3.413a.503.503 0 0 0-.489-.371Zm3.176 12.582a4.743 4.743 0 0 1-3.25-1.243c-2.375-2.136-3.058-6.574-2.496-9.66.195-1.062.691-1.918 1.477-2.55a1.747 1.747 0 0 1 1.656-.293c.566.187.996.648 1.144 1.23v.008l.657 2.754 2.285-.762a22.385 22.385 0 0 0 4.5-2.082l1.68-1.02a2.91 2.91 0 0 1 2.507-.254 2.94 2.94 0 0 1 1.793 1.801c.668 1.903.574 3.79-.277 5.45-1.379 2.695-4.703 4.832-9.875 6.351a6.52 6.52 0 0 1-1.8.27" fill="#000000" data-color="4"></path>
        <path d="M312.383 192.46a18.628 18.628 0 0 0 4.105 3.177c5.098 2.898 17.266 9.925 20.297 12.515 3.86 3.297 5.703 4.532 2.602 13.012-5.051 13.828-28.617-21.672-28.617-21.672s-6.926 1.254-8.48-4.816c0 0-3.606.676-5.11.027-1.153-.5-1.102-2.46.437-2.672l9.953-1.86a4.197 4.197 0 0 1 3.75 1.204l1.063 1.086" fill="#ffffff" data-color="2"></path>
        <path d="M310.77 198.867a.63.63 0 0 1 .52.278c4.71 7.09 18.327 25.34 24.718 24.566 1.25-.149 2.164-1.05 2.789-2.762 2.855-7.82 1.515-8.965-2.078-12.027l-.344-.29c-2.984-2.554-15.117-9.558-20.195-12.452a19.14 19.14 0 0 1-4.246-3.282l-1.063-1.085a3.58 3.58 0 0 0-3.187-1.024l-9.954 1.86c-.558.078-.687.44-.714.648-.04.297.07.68.41.828 1.094.473 3.797.11 4.75-.066a.623.623 0 0 1 .722.464c1.391 5.418 7.5 4.399 7.758 4.352.035-.008.07-.008.114-.008Zm24.878 26.121c-8.175 0-23.12-21.75-25.187-24.824-1.547.156-6.945.313-8.617-4.773-1.133.172-3.606.457-4.914-.114-.805-.347-1.285-1.23-1.16-2.148.125-.914.816-1.594 1.761-1.723l9.926-1.855a4.826 4.826 0 0 1 4.313 1.383l1.062 1.09a17.965 17.965 0 0 0 3.965 3.062c5.113 2.914 17.328 9.965 20.394 12.59l.344.289c3.98 3.394 5.48 5.105 2.445 13.414-.796 2.172-2.078 3.375-3.82 3.582a4.3 4.3 0 0 1-.512.027" fill="#000000" data-color="4"></path>
        <path d="m289.313 158.969-.747 10.375a3.314 3.314 0 0 1-2.453 2.804l-3.636.95 2.359 1.797a14.65 14.65 0 0 0 17.738.02l3.742-2.84-4.523-1.012a3.313 3.313 0 0 1-2.54-2.645l-1.995-13.723-7.945 4.274" fill="#ffffff" data-color="2"></path>
        <path d="m283.883 173.379 1.336 1.02c4.992 3.8 11.976 3.808 16.976.015l2.66-2.023-3.203-.715a3.93 3.93 0 0 1-3.015-3.145l-1.871-12.855-6.852 3.683-.723 10.028c-.199 1.648-1.343 2.957-2.918 3.367Zm9.832 5.133c-3.266 0-6.535-1.04-9.258-3.117l-2.363-1.797a.619.619 0 0 1-.235-.625.613.613 0 0 1 .454-.485l3.644-.949a2.67 2.67 0 0 0 1.984-2.273l.743-10.34a.635.635 0 0 1 .332-.508l7.945-4.277a.63.63 0 0 1 .918.464l2 13.723a2.665 2.665 0 0 0 2.05 2.121l4.52 1.012a.63.63 0 0 1 .246 1.113l-3.738 2.84a15.271 15.271 0 0 1-9.242 3.098" fill="#000000" data-color="4"></path>
        <path d="M277.531 144.535c2.492-1.32.485 2.79 8.684-4.308 3.265-2.825 3.379 2.449 4.23 1.718 3.133-2.695 3.024-2.61 5.004-2.953 1.309-.226 3.059 1.582 3.582 3.293.688 2.254-.816 3.606-.304 8.809.363 3.656 1.507 5.449.46 6.484-1.066 1.05-2.796-.23-4.046.828-1.614 1.367.23 4.414-.965 6.574-.754 1.36-3.223 2.965-8.418 2.84a1.766 1.766 0 0 1-1.695-1.476c-.176-1.07-.391-2.422-.489-3.73-.465-6.239.88-8.31-.445-9.372-2.024-1.637-5.465 1.406-6.926-.027-1.515-1.492-2.082-6.871 1.328-8.68" fill="#000000" data-color="4"></path>
        <path d="m289.93 148.031-.102 1.703c-.05.805-.043 1.61.02 2.41.117 1.504.297 4.094.285 5.551-.012 2.14-6.625 2.559-6.625 2.559l-.836-.934-.777.032a.897.897 0 0 1-.438-.086.836.836 0 0 1-.441-.88c.312-1.89.859-6.062.257-9.308 0 0 3.676-2.984 8.657-1.047" fill="#ffffff" data-color="2"></path>
        <path d="M282.672 158.691c.176 0 .348.075.465.207l.633.707c2.77-.218 5.734-1.03 5.738-1.914.008-1.445-.18-4.066-.29-5.5a18.294 18.294 0 0 1-.019-2.492l.074-1.234a8.367 8.367 0 0 0-7.316.894c.504 3.203.02 7.063-.32 9.13a.21.21 0 0 0 .11.218c.01.004.046.02.12.016l.778-.032h.027Zm.836 2.192a.622.622 0 0 1-.465-.207l-.64-.715-.481.02a1.556 1.556 0 0 1-.754-.157 1.474 1.474 0 0 1-.773-1.543c.277-1.668.855-5.886.257-9.09a.626.626 0 0 1 .223-.601c.16-.13 4.02-3.195 9.285-1.14a.624.624 0 0 1 .399.62l-.106 1.703c-.043.77-.039 1.555.02 2.325.113 1.449.3 4.109.289 5.601-.012 2.528-5.524 3.074-7.211 3.18-.016.004-.028.004-.043.004" fill="#000000" data-color="4"></path>
        <path d="M291.094 153.281s.242-4.097 2.078-3.578c1.836.52 1.457 5.02-2.078 3.578" fill="#ffffff" data-color="2"></path>
        <path d="M121.86 209.938s2.132 7.304-29.653 9.085c-31.785 1.778-26.469-7.257-26.469-7.257l33.371-9.723 22.75 7.894" fill="#000000" data-color="4"></path>
        <path d="M85.64 323.934c.852-.043-2.906 18.89-2.906 18.89l8.047.957 4.38-21.304-9.52 1.457" fill="#ffffff" data-color="2"></path>
        <path d="M85.668 324.559Zm0 0ZM83.48 342.28l6.805.809 4.078-19.852-7.976 1.215c.008 1.047-.274 3.445-1.317 9.324a477.37 477.37 0 0 1-1.59 8.504Zm7.301 2.13c-.023 0-.047 0-.074-.005l-8.047-.96a.63.63 0 0 1-.543-.746c1.586-7.985 3.149-16.973 3.02-18.391a.626.626 0 0 1-.121-.317.624.624 0 0 1 .53-.68l9.52-1.453a.611.611 0 0 1 .551.188c.14.148.2.355.16.558l-4.379 21.305a.63.63 0 0 1-.617.5" fill="#000000" data-color="4"></path>
        <path d="M79.152 349.5c.684-4.07 1.735-9.547 2.621-10.66 1.438-1.813 5.36 2.14 5.36 2.14s1.785-5.851 5.66-5.078c2.914.586 12.707 7.696 17.867 13.36 1.692 1.847.356 4.828-2.148 4.828H83.035a3.938 3.938 0 0 1-3.883-4.59" fill="#5479f7" data-color="3"></path>
        <path d="M79.77 349.605a3.307 3.307 0 0 0 3.265 3.856h25.477c1.09 0 1.789-.7 2.078-1.36a2.191 2.191 0 0 0-.39-2.417c-5.098-5.59-14.802-12.618-17.532-13.164-3.277-.653-4.918 4.593-4.934 4.648a.647.647 0 0 1-.449.426.637.637 0 0 1-.597-.168c-.946-.953-2.817-2.434-3.891-2.434-.02 0-.04 0-.059.004a.592.592 0 0 0-.476.234c-.285.364-1.102 2.094-2.492 10.375Zm28.742 5.114H83.035a4.564 4.564 0 0 1-4.504-5.32c1.594-9.497 2.461-10.59 2.75-10.95a1.85 1.85 0 0 1 1.387-.71c1.445-.087 3.219 1.277 4.203 2.14.73-1.742 2.649-5.274 6.043-4.594 3.215.645 13.254 8.113 18.211 13.55a3.452 3.452 0 0 1 .613 3.774 3.486 3.486 0 0 1-3.226 2.11" fill="#000000" data-color="4"></path>
        <path d="M107.078 350.328H81.773a.631.631 0 0 1 0-1.262h25.305a.632.632 0 0 1 0 1.262" fill="#ffffff" data-color="2"></path>
        <path d="m52.047 325.242-9.207 18.262-5.149-.527 4.579-19.567 9.777 1.832" fill="#ffffff" data-color="2"></path>
        <path d="m38.465 342.422 4.008.414 8.64-17.129-8.367-1.566Zm4.375 1.71c-.02 0-.043 0-.063-.003l-5.152-.527a.635.635 0 0 1-.547-.77l4.578-19.562a.63.63 0 0 1 .73-.477l9.778 1.832c.195.035.36.164.45.34a.633.633 0 0 1-.005.562l-9.207 18.258a.629.629 0 0 1-.562.348" fill="#000000" data-color="4"></path>
        <path d="M42.113 340.797s-2.62-3.992-6.902-.945c0 0-6.27 14.062-7.543 24.933-.36 3.078 3.117 5.133 5.652 3.36 5.938-4.149 14.95-12.211 18.625-24.711 0 0-2.687-4.356-5.98-5.977l-3.852 3.34" fill="#5479f7" data-color="3"></path>
        <path d="M35.715 340.266c-.688 1.582-6.25 14.554-7.422 24.593a2.92 2.92 0 0 0 1.43 2.88 2.947 2.947 0 0 0 3.238-.11c6.39-4.465 14.727-12.262 18.297-24.098-.57-.863-2.696-3.898-5.203-5.316l-3.532 3.058a.64.64 0 0 1-.5.149.643.643 0 0 1-.437-.277c-.016-.024-.988-1.454-2.613-1.754-1.028-.192-2.121.105-3.258.875Zm-4.45 29.164a4.3 4.3 0 0 1-2.19-.61 4.174 4.174 0 0 1-2.028-4.105c1.265-10.844 7.527-24.977 7.59-25.117a.594.594 0 0 1 .21-.258c1.481-1.05 2.95-1.45 4.372-1.184 1.426.27 2.437 1.149 2.972 1.739l3.364-2.91a.624.624 0 0 1 .691-.09c3.414 1.683 6.121 6.023 6.234 6.207.094.152.118.34.067.507-3.629 12.34-12.262 20.434-18.867 25.051-.735.516-1.57.77-2.414.77" fill="#000000" data-color="4"></path>
        <path d="M29.945 366.133a.632.632 0 0 1-.629-.606.633.633 0 0 1 .602-.652c.113-.004 9.805-.73 19.36-20.941a.63.63 0 1 1 1.136.535c-9.937 21.02-20.02 21.648-20.445 21.664h-.024" fill="#ffffff" data-color="2"></path>
        <path d="m53.719 328.293-15.45-.516 21.07-83.312a129.861 129.861 0 0 1 16.216-37.68l32.285-.02s11.91 45.477-9.922 120.32H81.773s6.286-68.28 5.766-87.901c0 0-15.176 56.09-33.82 89.109" fill="#000000" data-color="4"></path>
        <path d="M85.77 248.93a.504.504 0 0 1-.168-.028.624.624 0 0 1-.438-.773l5.695-20.262a.635.635 0 0 1 .426-.43l4.36-1.332a.63.63 0 0 1 .367 1.204l-4.035 1.23-5.602 19.93a.63.63 0 0 1-.605.46" fill="#caddff" data-color="1"></path>
        <path d="m168.754 153.012-11.93 6.445s-7.312 19.082-17.781 20.227c-10.469 1.152-20.824-13.336-20.824-13.336l-6.95 14.875s10.204 15.785 26.387 13.242c16.18-2.547 20.59-26.863 20.59-26.863-.008.015 3.828.378 5.274-3.36 1.23-3.183.718-5.054.718-5.054s5.746-3.07 4.516-6.176" fill="#ffffff" data-color="2"></path>
        <path d="M111.992 181.164c1.469 2.086 11.168 14.938 25.567 12.68 15.558-2.446 20.023-26.117 20.07-26.356a.618.618 0 0 1 .512-.508.637.637 0 0 1 .21 0c.22.02 3.36.196 4.583-2.964 1.125-2.914.699-4.653.695-4.668a.638.638 0 0 1 .312-.715c1.293-.696 4.274-2.73 4.352-4.656l-10.969 5.921c-.894 2.254-7.98 19.29-18.215 20.415a12.7 12.7 0 0 1-1.273.066c-8.863.004-17.152-9.805-19.492-12.816Zm22.18 14.203c-14.328 0-23.332-13.652-23.43-13.8a.639.639 0 0 1-.043-.61l6.95-14.875a.634.634 0 0 1 .511-.36.624.624 0 0 1 .57.262c.102.141 10.27 14.176 20.243 13.075 9.972-1.094 17.191-19.641 17.265-19.829a.603.603 0 0 1 .285-.328l11.93-6.441a.642.642 0 0 1 .516-.04c.168.063.3.192.367.36 1.23 3.09-3.043 5.926-4.406 6.735.09.8.113 2.53-.825 4.953-1.093 2.832-3.43 3.547-4.726 3.722a7.54 7.54 0 0 1-.621.059c-.77 3.715-5.73 24.434-21.004 26.832a22.75 22.75 0 0 1-3.582.285" fill="#000000" data-color="4"></path>
        <path d="M157.902 166.2a.63.63 0 0 1-.183-1.231c.02-.004 1.851-.598 2.047-2.031.164-1.18.84-2.063 1.375-2.602.308-.3.515-.684.601-1.098l-3.105 1.242a.625.625 0 0 1-.817-.351.628.628 0 0 1 .348-.816l4.023-1.606a.625.625 0 0 1 .586.063.632.632 0 0 1 .278.52v.464c0 .937-.364 1.816-1.028 2.476-.398.399-.902 1.047-1.015 1.88-.309 2.234-2.817 3.03-2.922 3.062a.623.623 0 0 1-.188.027" fill="#000000" data-color="4"></path>
        <path d="M77.398 182.105s-7.355 16.555-19.351 19.938c-11.996 3.379-20.352-6.84-20.297-17.39l4.074-1.352s4.188 10.812 13.52 8c9.332-2.817 13.664-24.809 13.664-24.809l8.39 15.613" fill="#ffffff" data-color="2"></path>
        <path d="M38.379 185.105c.101 5.645 2.668 11.036 6.758 14.149 2.523 1.922 6.785 3.86 12.738 2.184 10.738-3.032 17.797-17.157 18.82-19.317l-7.437-13.836c-1.235 5.281-5.586 21.16-13.73 23.617-1.137.34-2.204.493-3.196.493-6.453 0-9.941-6.38-10.852-8.317Zm15.059 18.23c-4.016 0-7.043-1.542-9.063-3.077-4.508-3.434-7.285-9.414-7.254-15.606a.63.63 0 0 1 .43-.597l4.078-1.352a.633.633 0 0 1 .785.371c.16.418 4.086 10.235 12.75 7.625 8.863-2.676 13.184-24.113 13.227-24.328a.627.627 0 0 1 .523-.5.636.636 0 0 1 .648.324l8.387 15.61a.63.63 0 0 1 .024.554c-.305.684-7.618 16.864-19.758 20.29-1.723.484-3.317.687-4.778.687" fill="#000000" data-color="4"></path>
        <path d="M121.863 166.129s-7.375-9.633-28.215-7.836c-24.886 2.152-26.78 7.07-26.78 7.07l6.495 13.168-7.625 33.235s5.211 4.316 17.41 1.894c12.204-2.422 33.168-5.398 38.711-3.722l-7.726-31.715 7.73-12.094" fill="#ffffff" data-color="2"></path>
        <path d="M66.445 211.496c1.262.813 6.47 3.555 16.582 1.547 12.153-2.414 31.243-5.082 37.985-3.941l-7.492-30.73a.648.648 0 0 1 .082-.49l7.476-11.695c-1.527-1.636-9.355-8.824-27.375-7.265-20.86 1.8-25.324 5.574-26.113 6.492l6.336 12.84a.62.62 0 0 1 .05.418Zm9.637 3.535c-7.281 0-10.57-2.636-10.742-2.781a.62.62 0 0 1-.211-.625l7.57-33.016-6.398-12.968a.628.628 0 0 1-.02-.504c.207-.54 2.746-5.348 27.313-7.469 20.937-1.809 28.457 7.672 28.77 8.074.16.211.171.5.03.723l-7.59 11.87 7.669 31.454a.636.636 0 0 1-.18.606.631.631 0 0 1-.613.144c-5.301-1.601-26.051 1.281-38.41 3.738-2.73.543-5.118.754-7.188.754" fill="#000000" data-color="4"></path>
        <path d="m43.973 196.066 29.703 1.2a1.284 1.284 0 0 0 1.094-1.957l-19.235-35.164a2.024 2.024 0 0 0-1.722-.965l-30.024.683 20.184 36.203" fill="#caddff" data-color="1"></path>
        <path d="M41.836 197.266h32.059L52.867 159.18H20.81l21.027 38.086" fill="#99b9ff" data-color="5"></path>
        <path d="M42.207 196.637h30.621l-20.332-36.828H21.871Zm31.688 1.258h-32.06a.62.62 0 0 1-.55-.325l-21.027-38.09a.62.62 0 0 1 .008-.62.631.631 0 0 1 .543-.31h32.058c.227 0 .438.126.551.325l21.027 38.086a.636.636 0 0 1-.011.625.625.625 0 0 1-.54.309" fill="#000000" data-color="4"></path>
        <path d="M41.098 196.066s.601-3.16 0-5.265c-.602-2.11-4.34-8.375-5.407-9.684-1.066-1.312-1.972 12.692 5.407 14.95" fill="#ffffff" data-color="2"></path>
        <path d="M35.727 182.227c-.223 1.523-.235 5.003.957 8.222.882 2.387 2.195 3.985 3.91 4.758.129-1.023.285-2.887-.102-4.234-.492-1.727-3.344-6.653-4.765-8.746Zm5.37 14.468a.581.581 0 0 1-.183-.027c-4.613-1.414-6.41-7.121-6.555-11.996-.054-1.75.067-3.902.93-4.227.246-.09.613-.07.89.274 1.141 1.398 4.91 7.77 5.524 9.906.633 2.227.04 5.426.012 5.559a.642.642 0 0 1-.293.421.634.634 0 0 1-.324.09" fill="#000000" data-color="4"></path>
        <path d="M153.61 128.496c4.042 2.461 4.675 7.164 4.722 7.555.637 5.336-3.16 10.86-7.305 11.683-3.547.707-4.773-2.539-9.226-2.328-4.961.235-5.453 4.364-10.184 5.403-6.98 1.535-9.824-6.582-17.84-6.016-6.172.437-6.976 5.422-13.699 5.484-.762.008-6.785-.035-10.8-4.703-4.024-4.683-4.114-11.785-1.133-16.512.308-.488 3.585-5.542 7.93-5.421 2.722.078 3.265 2.12 5.859 2.074 3.988-.07 4.789-4.938 8.28-5.14 4.04-.24 4.938 6.148 10.372 7.05 4.102.684 5.266-2.672 9.668-1.898 4.566.8 4.789 4.668 8.664 4.793 3.707.117 4.727-3.391 9.531-3.418 1.016-.008 3.094.136 5.16 1.394" fill="#000000" data-color="4"></path>
        <path d="M80.414 147.574c-.277-.437 1.04-2.812 1.082-3.68.047-.863-.629-1.585-.91-2.496-.285-.91.031-2.527.031-2.527.387-10.836 12.184-8.262 12.184-8.262 2.71.82 4.308 3.864 4.828 5.891 1.012 3.918-.852 8.66-.852 8.66.082.176 2.016 12.867 2.102 13.031 1.223 2.356-6.992 3.899-9.578 1.524-.871-.8.246-6.695 0-6.703-.965-.024-2.153 1.015-3.371.691-1.801-.476-3.153-4.98-3.41-5.316-.122-.16-.54-.25-.977-.352-.48-.11-.984-.23-1.129-.46" fill="#ffffff" data-color="2"></path>
        <path d="M80.898 147.184Zm.106.218Zm1.09 1.438h.004Zm7.172 3.543c.02 0 .035 0 .054.004.176 0 .352.086.47.218.241.278.214.516.05 2.055-.121 1.125-.442 4.11-.094 4.613 1.73 1.582 6.672 1.11 8.258-.105.48-.371.375-.578.316-.688-.078-.152-.093-.175-1.168-7.046-.425-2.707-.906-5.77-.976-6.098a.63.63 0 0 1 .015-.406c.02-.047 1.778-4.602.829-8.274-.422-1.652-1.825-4.648-4.372-5.437-.382-.078-5.476-1.035-8.695 1.469-1.7 1.32-2.61 3.41-2.707 6.207l-.012.097c-.078.41-.242 1.602-.05 2.219.093.293.238.574.39.871.29.563.586 1.14.551 1.848-.027.492-.313 1.207-.613 1.965-.16.398-.41 1.027-.485 1.351.184.066.489.137.657.176.613.14 1.078.246 1.332.578.105.137.18.32.402.879.43 1.074 1.57 3.926 2.672 4.215.512.14 1.078-.086 1.676-.32.484-.192.988-.391 1.5-.391Zm4.195 9.152c-1.785 0-3.54-.398-4.582-1.355-.695-.637-.645-2.332-.29-5.653.028-.25.056-.52.079-.754-.14.051-.29.11-.441.168-.692.274-1.547.61-2.461.368-1.711-.454-2.883-3.387-3.512-4.965-.078-.196-.164-.41-.219-.531a6.024 6.024 0 0 0-.601-.157c-.637-.148-1.262-.289-1.551-.746-.309-.492-.07-1.152.46-2.48.227-.57.512-1.282.528-1.567.02-.367-.18-.754-.414-1.203a6.834 6.834 0 0 1-.473-1.074c-.3-.965-.054-2.453.008-2.785.121-3.164 1.195-5.559 3.192-7.11 3.8-2.949 9.511-1.75 9.754-1.699a.22.22 0 0 1 .046.016c3.102.937 4.762 4.422 5.254 6.336.95 3.683-.472 7.945-.808 8.87.09.49.308 1.852.965 6.024.433 2.785.972 6.227 1.078 6.739.363.773.109 1.566-.703 2.191-1.075.82-3.211 1.367-5.31 1.367" fill="#000000" data-color="4"></path>
        <path d="M75.684 131.32c1.187-1.203 2.394-.004 7.105-.664 3.922-.55 5.055-1.66 8.023-1.168.833.137 2.32.383 3.793 1.461 2.18 1.594 2.993 3.836 3.422 5.504.84 3.262-.21 7.067-.687 8.5a.798.798 0 0 1-.832.547 20.75 20.75 0 0 1-2.645-.379.609.609 0 0 1-.441-.82c.043-.098.074-.2.105-.301.391-1.375-.27-2.77-1.468-3.11-1.207-.343-2.5.493-2.891 1.868a2.678 2.678 0 0 0-.063.285c-1.734-1.309-2.62-2.793-4.222-3.594-.192-.094-1.035-.476-2.317-.523-2.78-.098-3.707 1.55-5.023 1.23-2.3-.554-3.988-6.676-1.86-8.836" fill="#000000" data-color="4"></path>
        <path d="M89.02 153.64a.635.635 0 0 1-.602-.437.633.633 0 0 1 .414-.789c3.625-1.144 4.195-3.39 4.219-3.484a.626.626 0 0 1 .75-.473c.336.074.55.402.476.742-.027.125-.703 3.04-5.07 4.414a.623.623 0 0 1-.187.028" fill="#000000" data-color="4"></path>
        <path d="m241.918 337.352 1.039 4.125 2.73-3.7Zm.754 6.199a.626.626 0 0 1-.61-.477l-1.585-6.297a.622.622 0 0 1 .136-.566.616.616 0 0 1 .543-.211l5.754.652a.63.63 0 0 1 .434 1l-4.164 5.641a.63.63 0 0 1-.508.258" fill="#000000" data-color="4"></path>
        <path d="M172.406 355.645c-5.21 0-9.855-.258-13.902-.645-18.27-1.75-28.527-6.453-28.629-6.504a.628.628 0 1 1 .531-1.137c.098.047 10.211 4.676 28.29 6.395 16.687 1.59 43.773.957 78.023-11.094a.63.63 0 0 1 .418 1.188c-26.211 9.218-48.27 11.797-64.73 11.797" fill="#000000" data-color="4"></path>
        <path d="M170.918 362.004c-10.106 0-18.555-.887-25.227-2.02-17.68-2.996-27.07-8.328-27.164-8.382a.627.627 0 0 1-.23-.856.63.63 0 0 1 .86-.234c.09.054 9.335 5.297 26.823 8.25 16.145 2.722 42.813 4 78.184-5.403a.62.62 0 0 1 .766.446c.09.336-.11.68-.446.77-21.03 5.59-39.011 7.429-53.566 7.429" fill="#000000" data-color="4"></path>
        <path d="M116.566 326.246a.629.629 0 0 1-.629-.605l-.101-2.668a.631.631 0 0 1 .605-.653.615.615 0 0 1 .653.606l.101 2.668a.631.631 0 0 1-.605.652h-.024" fill="#000000" data-color="4"></path>
        <path d="M116.883 334.672a.632.632 0 0 1-.63-.606l-.097-2.668a.625.625 0 0 1 .602-.648.631.631 0 0 1 .652.602l.102 2.668a.629.629 0 0 1-.606.652h-.023" fill="#000000" data-color="4"></path>
        <path d="M111.129 329.336a.625.625 0 0 1-.625-.606.623.623 0 0 1 .601-.652l2.668-.101a.626.626 0 0 1 .649.605.623.623 0 0 1-.602.652l-2.668.098c-.007.004-.015.004-.023.004" fill="#000000" data-color="4"></path>
        <path d="M119.555 329.016a.626.626 0 0 1-.63-.602.624.624 0 0 1 .606-.652l2.664-.102c.356-.02.64.254.653.606a.628.628 0 0 1-.606.648l-2.664.102h-.023" fill="#000000" data-color="4"></path>
        <path d="M84.844 107.824a.625.625 0 0 1-.625-.605l-.102-2.664a.626.626 0 0 1 .602-.653.629.629 0 0 1 .652.606l.102 2.664a.629.629 0 0 1-.606.652h-.023" fill="#000000" data-color="4"></path>
        <path d="M85.164 116.254a.629.629 0 0 1-.629-.606l-.101-2.668a.629.629 0 0 1 .605-.652.639.639 0 0 1 .652.606l.098 2.668a.622.622 0 0 1-.602.648c-.007.004-.015.004-.023.004" fill="#000000" data-color="4"></path>
        <path d="M79.41 110.914a.629.629 0 0 1-.023-1.258l2.664-.101a.62.62 0 0 1 .652.605.629.629 0 0 1-.605.653l-2.664.101h-.024" fill="#000000" data-color="4"></path>
        <path d="M87.832 110.598a.629.629 0 0 1-.023-1.258l2.664-.102c.347-.02.64.258.652.606a.629.629 0 0 1-.605.652l-2.665.102h-.023" fill="#000000" data-color="4"></path>
        <path d="M324.465 131.285c.14 6.524-5.031 11.922-11.547 12.059-6.52.14-11.914-5.031-12.055-11.551-.136-6.523 5.035-11.918 11.551-12.059 6.516-.14 11.91 5.036 12.05 11.551" fill="#ffffff" data-color="2"></path>
        <path d="M312.672 120.36c-.082 0-.164 0-.246.003a11.09 11.09 0 0 0-7.828 3.442 11.091 11.091 0 0 0-3.102 7.972 11.12 11.12 0 0 0 3.438 7.836 11.116 11.116 0 0 0 7.972 3.102 11.097 11.097 0 0 0 7.828-3.442 11.107 11.107 0 0 0 3.102-7.972 11.104 11.104 0 0 0-3.438-7.832 11.092 11.092 0 0 0-7.726-3.11Zm-.016 23.617a12.34 12.34 0 0 1-8.59-3.457 12.345 12.345 0 0 1-3.828-8.715 12.38 12.38 0 0 1 3.45-8.871 12.36 12.36 0 0 1 8.714-3.829 12.343 12.343 0 0 1 8.86 3.454 12.35 12.35 0 0 1 3.832 8.714c.144 6.856-5.309 12.555-12.164 12.7-.09 0-.18.004-.274.004" fill="#000000" data-color="4"></path>
        <path d="M311.926 137.34a.634.634 0 0 1-.555-.328l-3.953-7.367a.626.626 0 1 1 1.105-.594l3.168 5.89c1.024-4.129 2.391-7.238 4.153-9.468.21-.274.61-.32.883-.102.27.211.32.61.101.883-1.836 2.328-3.277 5.89-4.289 10.59a.628.628 0 0 1-.523.492.685.685 0 0 1-.09.004" fill="#000000" data-color="4"></path>
        <path d="M161.422 113.867a7.338 7.338 0 0 1-7.336-7.34 7.338 7.338 0 1 1 14.676 0 7.339 7.339 0 0 1-7.34 7.34Zm14.113-10.449a.37.37 0 0 0-.336-.316l-2.496-.204a.37.37 0 0 1-.32-.25 10.9 10.9 0 0 0-.57-1.347.378.378 0 0 1 .042-.399l1.586-1.941a.375.375 0 0 0 .004-.461l-1.351-1.73a.369.369 0 0 0-.45-.106l-2.269 1.074a.365.365 0 0 1-.395-.054 11.13 11.13 0 0 0-1.167-.88.376.376 0 0 1-.165-.367l.407-2.476a.368.368 0 0 0-.227-.402l-2.035-.82a.366.366 0 0 0-.441.128l-1.426 2.063a.363.363 0 0 1-.371.152c-.477-.09-.961-.148-1.453-.176a.365.365 0 0 1-.325-.234l-.886-2.348a.373.373 0 0 0-.399-.234l-2.172.308a.366.366 0 0 0-.316.336l-.203 2.5a.371.371 0 0 1-.25.317 11.73 11.73 0 0 0-1.344.57.369.369 0 0 1-.398-.039l-1.942-1.586a.37.37 0 0 0-.46-.004l-1.727 1.352a.375.375 0 0 0-.11.453l1.075 2.27a.365.365 0 0 1-.055.394c-.317.371-.61.762-.88 1.168a.36.36 0 0 1-.362.164l-2.477-.402a.373.373 0 0 0-.402.226l-.82 2.04a.368.368 0 0 0 .132.44l2.059 1.426c.12.082.18.227.152.372-.09.476-.148.96-.176 1.453a.37.37 0 0 1-.234.328l-2.344.886a.364.364 0 0 0-.234.399l.305 2.176a.37.37 0 0 0 .34.316l2.496.203a.37.37 0 0 1 .316.25c.164.465.351.914.57 1.348a.37.37 0 0 1-.043.398l-1.582 1.938a.376.376 0 0 0-.008.465l1.352 1.73c.11.137.297.18.453.106l2.266-1.075a.373.373 0 0 1 .398.055c.367.317.758.61 1.164.879a.369.369 0 0 1 .164.367l-.402 2.477a.364.364 0 0 0 .227.402l2.035.82a.365.365 0 0 0 .441-.132l1.422-2.059a.366.366 0 0 1 .371-.152c.477.09.961.148 1.453.172a.375.375 0 0 1 .324.238l.887 2.347a.38.38 0 0 0 .402.235l2.168-.309a.374.374 0 0 0 .32-.336l.204-2.504a.36.36 0 0 1 .246-.312c.465-.164.914-.356 1.348-.574a.378.378 0 0 1 .398.043l1.938 1.586a.37.37 0 0 0 .46.004l1.731-1.352a.38.38 0 0 0 .105-.45l-1.074-2.273a.372.372 0 0 1 .055-.398c.316-.367.61-.758.879-1.164a.362.362 0 0 1 .367-.164l2.473.402a.366.366 0 0 0 .402-.23l.82-2.036a.363.363 0 0 0-.132-.441l-2.06-1.426a.36.36 0 0 1-.148-.37c.086-.477.145-.966.172-1.454a.368.368 0 0 1 .239-.324l2.34-.89a.364.364 0 0 0 .234-.4l-.305-2.175" fill="#ffffff" data-color="2"></path>
        <path d="M161.422 99.816c-3.7 0-6.707 3.012-6.707 6.715 0 3.7 3.008 6.707 6.707 6.707 3.7 0 6.71-3.008 6.71-6.707 0-3.703-3.01-6.715-6.71-6.715Zm0 14.68c-4.39 0-7.965-3.574-7.965-7.965 0-4.398 3.574-7.972 7.965-7.972 4.39 0 7.965 3.574 7.965 7.972 0 4.39-3.575 7.965-7.965 7.965Zm.941-20.047Zm-5.02.512h-.003.004Zm-5.277 1.379v.004-.004Zm16.204.2Zm-16.825 3.136Zm20.93 1.344Zm1.281 6.222Zm-18.972 9.535Zm5.796 1.828Zm-3.5 1.223h-.003Zm2.243-2.492c.058 0 .12.008.183.02.446.082.906.136 1.371.164a.993.993 0 0 1 .875.64l.817 2.153 1.761-.25.188-2.293c.031-.391.297-.73.664-.86.441-.156.871-.336 1.273-.539a1.009 1.009 0 0 1 1.083.117l1.777 1.453 1.398-1.101-.984-2.082a1.01 1.01 0 0 1 .144-1.074c.301-.348.579-.72.832-1.106a.998.998 0 0 1 .993-.437l2.27.37.667-1.656-1.89-1.308a.996.996 0 0 1-.41-1c.081-.445.14-.906.167-1.375a.993.993 0 0 1 .637-.879l2.152-.816-.25-1.766-2.293-.188a.99.99 0 0 1-.855-.664 10.844 10.844 0 0 0-.543-1.273 1.01 1.01 0 0 1 .121-1.078l1.453-1.785-1.101-1.403-2.075.989a1 1 0 0 1-1.078-.149 10.816 10.816 0 0 0-1.101-.828 1.01 1.01 0 0 1-.442-.996l.371-2.27-1.648-.668-1.309 1.891a.994.994 0 0 1-1 .41c-.449-.082-.91-.136-1.375-.164a.997.997 0 0 1-.879-.64l-.812-2.153-1.762.25-.187 2.297c-.035.39-.293.727-.668.86-.438.152-.863.335-1.27.538a1.001 1.001 0 0 1-1.078-.117l-1.781-1.457-1.399 1.102.985 2.082a.999.999 0 0 1-.149 1.074c-.296.352-.578.723-.828 1.106a1 1 0 0 1-.996.437l-2.265-.367-.668 1.652 1.89 1.309c.32.222.48.613.41 1-.082.449-.14.91-.164 1.375a1 1 0 0 1-.64.879l-2.153.816.25 1.766 2.293.187a.99.99 0 0 1 .856.668c.156.438.336.864.539 1.274a.995.995 0 0 1-.113 1.074l-1.457 1.781 1.101 1.406 2.078-.984a.999.999 0 0 1 1.074.145c.348.296.72.578 1.106.832a.996.996 0 0 1 .434.992l-.368 2.273 1.653.664 1.304-1.886a.996.996 0 0 1 .82-.434Zm3.074 4.262a.99.99 0 0 1-.93-.645l-.828-2.187a13.402 13.402 0 0 1-1.2-.145l-1.327 1.922a1 1 0 0 1-1.196.36l-2.03-.821a.993.993 0 0 1-.614-1.09l.375-2.308a13.536 13.536 0 0 1-.965-.727l-2.113 1.004a.992.992 0 0 1-1.211-.29l-1.356-1.73a1.004 1.004 0 0 1 .012-1.246l1.48-1.812c-.171-.356-.332-.73-.472-1.113l-2.328-.188a.994.994 0 0 1-.906-.855l-.31-2.176a.989.989 0 0 1 .638-1.074l2.183-.829c.031-.406.078-.808.145-1.203l-1.918-1.328a.996.996 0 0 1-.36-1.195l.82-2.04a.992.992 0 0 1 1.087-.612l2.304.375c.227-.332.47-.653.727-.961l-1-2.121a.987.987 0 0 1 .289-1.211l1.723-1.356a.999.999 0 0 1 1.25.016l1.808 1.476c.356-.172.73-.332 1.113-.472l.188-2.332c.04-.47.39-.84.855-.907l2.172-.308a1 1 0 0 1 1.075.633l.828 2.187c.402.031.804.078 1.199.148l1.328-1.925a.993.993 0 0 1 1.195-.36l2.032.825a.988.988 0 0 1 .613 1.085l-.375 2.313c.328.223.656.465.965.723l2.11-1a.989.989 0 0 1 1.214.285l1.355 1.73a.993.993 0 0 1-.015 1.246l-1.477 1.813c.172.36.332.734.473 1.113l2.328.188c.469.039.84.39.906.859l.309 2.172a.989.989 0 0 1-.637 1.074l-2.183.832a11.97 11.97 0 0 1-.145 1.2l1.922 1.331a.993.993 0 0 1 .355 1.192l-.82 2.039a.988.988 0 0 1-1.086.613l-2.309-.375a11.49 11.49 0 0 1-.722.965l1 2.117c.2.422.082.922-.285 1.211l-1.73 1.356a.993.993 0 0 1-1.247-.012l-1.808-1.477c-.356.168-.73.328-1.11.47l-.191 2.331a.99.99 0 0 1-.856.906l-2.172.309a.902.902 0 0 1-.144.012" fill="#000000" data-color="4"></path>
    </g>
</svg>